<svg width="44" height="44" viewBox="0 0 44 44" fill="none" xmlns="http://www.w3.org/2000/svg">
<path d="M25.6666 14.667H31.1666C34.2043 14.667 36.6666 17.1294 36.6666 20.167V40.3337H25.6666V14.667Z" fill="#3056D3"/>
<path d="M7.33337 13.4607C7.33337 10.937 9.05101 8.73705 11.4994 8.12493L22.4994 5.37493C25.9707 4.50711 29.3334 7.13259 29.3334 10.7107V40.3331H7.33337V13.4607Z" fill="#98AAE9"/>
<path fill-rule="evenodd" clip-rule="evenodd" d="M14.6666 31.1663C14.6666 30.1538 15.4874 29.333 16.5 29.333H20.1666C21.1792 29.333 22 30.1538 22 31.1663C22 32.1789 21.1792 32.9997 20.1666 32.9997H16.5C15.4874 32.9997 14.6666 32.1789 14.6666 31.1663Z" fill="#3056D3"/>
<path fill-rule="evenodd" clip-rule="evenodd" d="M14.6666 23.8333C14.6666 22.8208 15.4874 22 16.5 22H20.1666C21.1792 22 22 22.8208 22 23.8333C22 24.8459 21.1792 25.6667 20.1666 25.6667H16.5C15.4874 25.6667 14.6666 24.8459 14.6666 23.8333Z" fill="#3056D3"/>
<path fill-rule="evenodd" clip-rule="evenodd" d="M14.6666 16.5003C14.6666 15.4878 15.4874 14.667 16.5 14.667H20.1666C21.1792 14.667 22 15.4878 22 16.5003C22 17.5128 21.1792 18.3337 20.1666 18.3337H16.5C15.4874 18.3337 14.6666 17.5128 14.6666 16.5003Z" fill="#3056D3"/>
<path fill-rule="evenodd" clip-rule="evenodd" d="M3.66663 38.5003C3.66663 37.4878 4.48745 36.667 5.49996 36.667H38.5C39.5125 36.667 40.3333 37.4878 40.3333 38.5003C40.3333 39.5129 39.5125 40.3337 38.5 40.3337H5.49996C4.48745 40.3337 3.66663 39.5129 3.66663 38.5003Z" fill="#98AAE9"/>
</svg>
