<svg width="72" height="72" viewBox="0 0 72 72" fill="none" xmlns="http://www.w3.org/2000/svg">
<g id="Icon">
<circle id="Ellipse 120" cx="36" cy="36" r="36" fill="#6B77E5"/>
<g id="Icon_2">
<path id="Vector" d="M25.2503 50.7813C24.8939 50.7813 24.5521 50.6397 24.3001 50.3877C24.0481 50.1357 23.9065 49.7939 23.9065 49.4376V42.2653C23.1693 42.6169 22.3523 42.7676 21.5382 42.702C20.8488 42.6514 20.1791 42.4494 19.5767 42.1105C18.9743 41.7715 18.454 41.304 18.0528 40.7411C17.6517 40.1782 17.3795 39.5338 17.2557 38.8538C17.1319 38.1737 17.1596 37.4748 17.3367 36.8066C17.5137 36.1385 17.8359 35.5176 18.2803 34.9881C18.7246 34.4586 19.2802 34.0336 19.9075 33.7433C20.5348 33.453 21.2184 33.3045 21.9096 33.3085C22.6008 33.3124 23.2826 33.4686 23.9065 33.7661V26.5938C23.9065 26.2374 24.0481 25.8956 24.3001 25.6436C24.5521 25.3916 24.8939 25.25 25.2503 25.25H33.0944C32.7428 24.5129 32.5921 23.6958 32.6577 22.8817C32.7084 22.1923 32.9103 21.5226 33.2493 20.9202C33.5882 20.3178 34.0557 19.7975 34.6186 19.3963C35.1815 18.9952 35.8259 18.723 36.506 18.5992C37.186 18.4754 37.885 18.5031 38.5531 18.6802C39.2212 18.8572 39.8421 19.1794 40.3716 19.6238C40.9011 20.0681 41.3261 20.6237 41.6164 21.251C41.9067 21.8783 42.0552 22.5619 42.0512 23.2531C42.0473 23.9443 41.8911 24.6261 41.5937 25.25H49.4378C49.7942 25.25 50.136 25.3916 50.388 25.6436C50.64 25.8956 50.7815 26.2374 50.7815 26.5938V33.7661C50.0443 33.4144 49.2273 33.2637 48.4132 33.3293C47.7238 33.38 47.0541 33.582 46.4517 33.9209C45.8493 34.2598 45.329 34.7274 44.9278 35.2903C44.5267 35.8532 44.2545 36.4975 44.1307 37.1776C44.0069 37.8576 44.0346 38.5566 44.2117 39.2247C44.3887 39.8929 44.7109 40.5138 45.1553 41.0432C45.5996 41.5727 46.1552 41.9977 46.7825 42.288C47.4098 42.5783 48.0934 42.7268 48.7846 42.7229C49.4758 42.7189 50.1576 42.5627 50.7815 42.2653V49.4376C50.7815 49.7939 50.64 50.1357 50.388 50.3877C50.136 50.6397 49.7942 50.7813 49.4378 50.7813H25.2503Z" stroke="white" stroke-width="2" stroke-linecap="round" stroke-linejoin="round"/>
</g>
</g>
</svg>
