<svg width="94" height="44" viewBox="0 0 94 44" fill="none" xmlns="http://www.w3.org/2000/svg">
<rect x="1.5" y="10.5" width="82" height="32" stroke="white" stroke-width="3"/>
<path d="M20.1054 35.22C18.9187 35.22 17.9854 34.9867 17.3054 34.52C16.6387 34.0533 16.1721 33.42 15.9054 32.62C15.6387 31.8067 15.5054 30.8733 15.5054 29.82V24.04C15.5054 22.9333 15.6387 21.9733 15.9054 21.16C16.1721 20.3467 16.6387 19.72 17.3054 19.28C17.9854 18.84 18.9187 18.62 20.1054 18.62C21.2254 18.62 22.0987 18.8133 22.7254 19.2C23.3654 19.5733 23.8187 20.1133 24.0854 20.82C24.3521 21.5267 24.4854 22.3467 24.4854 23.28V24.64H21.6454V23.24C21.6454 22.7867 21.6187 22.3733 21.5654 22C21.5254 21.6267 21.3987 21.3333 21.1854 21.12C20.9854 20.8933 20.6321 20.78 20.1254 20.78C19.6187 20.78 19.2454 20.9 19.0054 21.14C18.7787 21.3667 18.6321 21.68 18.5654 22.08C18.4987 22.4667 18.4654 22.9067 18.4654 23.4V30.44C18.4654 31.0267 18.5121 31.5133 18.6054 31.9C18.6987 32.2733 18.8654 32.56 19.1054 32.76C19.3587 32.9467 19.6987 33.04 20.1254 33.04C20.6187 33.04 20.9654 32.9267 21.1654 32.7C21.3787 32.46 21.5121 32.1467 21.5654 31.76C21.6187 31.3733 21.6454 30.94 21.6454 30.46V29H24.4854V30.3C24.4854 31.26 24.3587 32.1133 24.1054 32.86C23.8521 33.5933 23.4054 34.1733 22.7654 34.6C22.1387 35.0133 21.2521 35.22 20.1054 35.22ZM28.5462 35V18.8H32.4262C33.5195 18.8 34.4395 18.9333 35.1862 19.2C35.9462 19.4533 36.5195 19.8933 36.9062 20.52C37.3062 21.1467 37.5062 22 37.5062 23.08C37.5062 23.7333 37.4462 24.32 37.3262 24.84C37.2062 25.36 36.9995 25.8067 36.7062 26.18C36.4262 26.54 36.0328 26.82 35.5262 27.02L37.7862 35H34.8262L32.8662 27.58H31.5062V35H28.5462ZM31.5062 25.72H32.4262C32.9995 25.72 33.4528 25.64 33.7862 25.48C34.1328 25.3067 34.3795 25.04 34.5262 24.68C34.6728 24.3067 34.7462 23.8333 34.7462 23.26C34.7462 22.4467 34.5928 21.84 34.2862 21.44C33.9928 21.0267 33.4262 20.82 32.5862 20.82H31.5062V25.72ZM41.8371 35V18.8H44.7571V35H41.8371ZM53.3449 35.22C52.3716 35.22 51.5583 35.0333 50.9049 34.66C50.2516 34.2733 49.7583 33.7133 49.4249 32.98C49.0916 32.2467 48.9049 31.3467 48.8649 30.28L51.4049 29.78C51.4316 30.4067 51.5049 30.96 51.6249 31.44C51.7583 31.92 51.9516 32.2933 52.2049 32.56C52.4716 32.8133 52.8183 32.94 53.2449 32.94C53.7249 32.94 54.0649 32.8 54.2649 32.52C54.4649 32.2267 54.5649 31.86 54.5649 31.42C54.5649 30.7133 54.4049 30.1333 54.0849 29.68C53.7649 29.2267 53.3383 28.7733 52.8049 28.32L50.7649 26.52C50.1916 26.0267 49.7316 25.48 49.3849 24.88C49.0516 24.2667 48.8849 23.5133 48.8849 22.62C48.8849 21.34 49.2583 20.3533 50.0049 19.66C50.7516 18.9667 51.7716 18.62 53.0649 18.62C53.8249 18.62 54.4583 18.74 54.9649 18.98C55.4716 19.2067 55.8716 19.5267 56.1649 19.94C56.4716 20.3533 56.6983 20.8267 56.8449 21.36C56.9916 21.88 57.0849 22.4333 57.1249 23.02L54.6049 23.46C54.5783 22.9533 54.5183 22.5 54.4249 22.1C54.3449 21.7 54.1916 21.3867 53.9649 21.16C53.7516 20.9333 53.4316 20.82 53.0049 20.82C52.5649 20.82 52.2249 20.9667 51.9849 21.26C51.7583 21.54 51.6449 21.8933 51.6449 22.32C51.6449 22.8667 51.7583 23.32 51.9849 23.68C52.2116 24.0267 52.5383 24.3867 52.9649 24.76L54.9849 26.54C55.6516 27.1 56.2183 27.76 56.6849 28.52C57.1649 29.2667 57.4049 30.1733 57.4049 31.24C57.4049 32.0133 57.2316 32.7 56.8849 33.3C56.5516 33.9 56.0783 34.3733 55.4649 34.72C54.8649 35.0533 54.1583 35.22 53.3449 35.22ZM61.1477 35V18.8H65.9077C66.8811 18.8 67.6677 18.98 68.2677 19.34C68.8811 19.7 69.3277 20.2267 69.6077 20.92C69.9011 21.6 70.0477 22.4267 70.0477 23.4C70.0477 24.4533 69.8677 25.3067 69.5077 25.96C69.1477 26.6 68.6411 27.0667 67.9877 27.36C67.3477 27.6533 66.5877 27.8 65.7077 27.8H64.1077V35H61.1477ZM64.1077 25.72H65.2277C65.7611 25.72 66.1744 25.6467 66.4677 25.5C66.7744 25.34 66.9811 25.0933 67.0877 24.76C67.2077 24.4133 67.2677 23.9533 67.2677 23.38C67.2677 22.7933 67.2211 22.32 67.1277 21.96C67.0477 21.5867 66.8611 21.3133 66.5677 21.14C66.2877 20.9667 65.8411 20.88 65.2277 20.88H64.1077V25.72Z" fill="white"/>
<path d="M89.5 38V33.5H92.5V1.5H10.5V4.5H6.5" stroke="white" stroke-width="3"/>
</svg>
