<svg width="24" height="24" viewBox="0 0 24 24" fill="none" xmlns="http://www.w3.org/2000/svg">
<path d="M16.9649 2.43786C18.2805 2.44164 19.5412 2.94661 20.4715 3.84246C21.4018 4.73832 21.9262 5.95227 21.9301 7.21919V16.7808C21.9262 18.0478 21.4018 19.2617 20.4715 20.1576C19.5412 21.0534 18.2805 21.5584 16.9649 21.5622H7.03548C5.71982 21.5584 4.45918 21.0534 3.52887 20.1576C2.59856 19.2617 2.07417 18.0478 2.07025 16.7808V7.21919C2.07417 5.95227 2.59856 4.73832 3.52887 3.84246C4.45918 2.94661 5.71982 2.44164 7.03548 2.43786H16.9649V2.43786ZM16.9649 0.525635H7.03548C3.21234 0.525635 0.0844727 3.53766 0.0844727 7.21919V16.7808C0.0844727 20.4624 3.21234 23.4744 7.03548 23.4744H16.9649C20.788 23.4744 23.9159 20.4624 23.9159 16.7808V7.21919C23.9159 3.53766 20.788 0.525635 16.9649 0.525635V0.525635Z" fill="white"/>
<path d="M18.454 7.21918C18.1594 7.21918 17.8714 7.13506 17.6265 6.97746C17.3816 6.81986 17.1907 6.59585 17.0779 6.33377C16.9652 6.07168 16.9357 5.78329 16.9932 5.50507C17.0506 5.22684 17.1925 4.97127 17.4008 4.77068C17.6091 4.57009 17.8745 4.43349 18.1634 4.37815C18.4524 4.3228 18.7518 4.35121 19.024 4.45977C19.2962 4.56832 19.5288 4.75216 19.6924 4.98803C19.8561 5.2239 19.9435 5.50121 19.9435 5.78488C19.9439 5.97335 19.9056 6.16005 19.8309 6.33425C19.7562 6.50845 19.6465 6.66672 19.5082 6.79999C19.3698 6.93326 19.2054 7.03889 19.0245 7.11083C18.8436 7.18276 18.6497 7.21959 18.454 7.21918V7.21918ZM11.9998 8.17504C12.7854 8.17504 13.5534 8.39937 14.2066 8.81966C14.8598 9.23996 15.3689 9.83733 15.6696 10.5363C15.9702 11.2352 16.0489 12.0042 15.8956 12.7462C15.7423 13.4882 15.364 14.1697 14.8085 14.7047C14.253 15.2396 13.5453 15.6039 12.7748 15.7515C12.0043 15.8991 11.2056 15.8233 10.4798 15.5338C9.75399 15.2443 9.13364 14.7541 8.69718 14.125C8.26073 13.496 8.02777 12.7565 8.02777 12C8.02889 10.9859 8.44774 10.0136 9.19241 9.29654C9.93707 8.57946 10.9467 8.17612 11.9998 8.17504V8.17504ZM11.9998 6.26281C10.8215 6.26281 9.6696 6.59929 8.68984 7.2297C7.71008 7.86011 6.94644 8.75614 6.49551 9.80448C6.04457 10.8528 5.92659 12.0064 6.15647 13.1193C6.38636 14.2322 6.95379 15.2545 7.78701 16.0568C8.62023 16.8592 9.68182 17.4056 10.8375 17.627C11.9932 17.8483 13.1912 17.7347 14.2798 17.3005C15.3685 16.8662 16.299 16.1309 16.9536 15.1874C17.6083 14.2439 17.9577 13.1347 17.9577 12C17.9577 10.4784 17.33 9.01913 16.2127 7.9432C15.0954 6.86727 13.58 6.26281 11.9998 6.26281V6.26281Z" fill="white"/>
</svg>
