<svg width="27" height="22" viewBox="0 0 27 22" fill="none" xmlns="http://www.w3.org/2000/svg">
<path d="M26.267 3.20676C25.3092 3.62294 24.2958 3.89712 23.2589 4.02065C24.3487 3.38251 25.1682 2.36871 25.5638 1.16939C24.5335 1.77187 23.4081 2.1946 22.2359 2.41948C21.7423 1.90217 21.1487 1.49064 20.4911 1.2099C19.8335 0.929154 19.1257 0.785064 18.4107 0.786386C15.5158 0.786386 13.1731 3.09505 13.1731 5.94099C13.171 6.33685 13.2164 6.73153 13.3082 7.1166C11.2323 7.01929 9.19968 6.48974 7.34022 5.56185C5.48076 4.63395 3.83546 3.32813 2.50958 1.72794C2.04443 2.5121 1.79843 3.4068 1.7973 4.31854C1.7973 6.10589 2.72981 7.68579 4.13788 8.61138C3.30364 8.59159 2.48649 8.37078 1.75581 7.96772V8.03156C1.75581 10.5317 3.56444 12.6117 5.95822 13.0851C5.50808 13.2051 5.04421 13.2659 4.57834 13.266C4.24777 13.2665 3.91796 13.2345 3.5937 13.1702C4.25917 15.2182 6.196 16.7077 8.49031 16.7502C6.62602 18.187 4.33716 18.9635 1.98348 18.9578C1.5657 18.9572 1.1483 18.9323 0.733398 18.8834C3.12781 20.4123 5.91111 21.221 8.75203 21.2133C18.3995 21.2133 23.6701 13.3564 23.6701 6.54209C23.6701 6.31868 23.6642 6.09526 23.6536 5.87716C24.6766 5.14948 25.5616 4.24519 26.267 3.20676Z" fill="white"/>
</svg>
