<svg width="42" height="56" viewBox="0 0 42 56" fill="none" xmlns="http://www.w3.org/2000/svg">
<path fill-rule="evenodd" clip-rule="evenodd" d="M34.999 0C34.7828 0 34.5904 0.13698 34.5196 0.341261V0.344761L33.6201 3.05027C33.2177 4.26128 32.2693 5.20978 31.0584 5.61228L28.3497 6.51529C28.1455 6.58611 28.0085 6.77858 28.0085 6.99479C28.0085 7.211 28.1455 7.40347 28.3497 7.47429L31.0549 8.37729C32.2648 8.77983 33.2142 9.72927 33.6166 10.9393L34.5196 13.6483C34.5904 13.8526 34.7828 13.9896 34.999 13.9896C35.2152 13.9896 35.4076 13.8526 35.4785 13.6483L36.3814 10.9393C36.7838 9.72927 37.7332 8.77983 38.9431 8.37729L41.6518 7.47429C41.856 7.40347 41.993 7.211 41.993 6.99479C41.993 6.77858 41.856 6.58611 41.6518 6.51529L38.9431 5.61228C37.7322 5.20978 36.7838 4.26128 36.3814 3.05027L35.4785 0.341261C35.4076 0.13698 35.2152 0 34.999 0ZM9.78071 4.01278C9.88363 3.70191 10.1742 3.49202 10.5016 3.49202C10.8291 3.49202 11.1196 3.70191 11.2226 4.01278L12.5769 8.07979C13.1823 9.8928 14.6032 11.3138 16.416 11.9193L20.4826 13.2738C20.7934 13.3768 21.0033 13.6674 21.0033 13.9948C21.0033 14.3223 20.7934 14.6129 20.4826 14.7158L16.416 16.0703C14.6033 16.6743 13.1809 18.0969 12.5769 19.9098L11.2226 23.9769C11.1196 24.2877 10.8291 24.4976 10.5016 24.4976C10.1742 24.4976 9.88363 24.2877 9.78071 23.9769L8.42635 19.9098C7.82241 18.0969 6.39999 16.6743 4.58726 16.0703L0.520699 14.7158C0.209865 14.6129 0 14.3223 0 13.9948C0 13.6674 0.209865 13.3768 0.520699 13.2738L4.58726 11.9193C6.39999 11.3153 7.82241 9.89272 8.42635 8.07979L9.78071 4.01278ZM23.2998 21.8594C23.6847 20.7043 25.3155 20.7043 25.7005 21.8594L27.9578 28.6389C28.9651 31.6605 31.3367 34.0311 34.3586 35.0369L41.1338 37.2944C42.2887 37.6794 42.2887 39.3104 41.1338 39.6954L34.3551 41.9529C31.3338 42.9604 28.9635 45.3323 27.9578 48.3545L25.7005 55.1305C25.5303 55.6493 25.0461 56 24.5001 56C23.9542 56 23.47 55.6493 23.2998 55.1305L21.0425 48.351C20.0359 45.3301 17.6657 42.9597 14.6452 41.9529L7.86641 39.6954C7.34769 39.5252 6.997 39.0409 6.997 38.4949C6.997 37.9489 7.34769 37.4647 7.86641 37.2944L14.6452 35.0369C17.6657 34.0301 20.0359 31.6597 21.0425 28.6389L23.2998 21.8594Z" fill="white"/>
</svg>
